<svg xmlns="http://www.w3.org/2000/svg" viewBox="0 0 693.1 273.88"><defs><style>.cls-1{fill:#bc0;}.cls-2{fill:#004a80;}.cls-3{fill:none;stroke:#fff;stroke-miterlimit:10;stroke-width:0.27px;}.cls-4{fill:#62c2d1;}.cls-5{fill:#fff;}</style></defs><g id="Layer_2" data-name="Layer 2"><g id="Camada_1" data-name="Camada 1"><path class="cls-1" d="M22.07,64S0,64,0,86.12V251.79s0,22.09,22.07,22.09H193.44s22.09,0,22.09-22.09V86.12S215.53,64,193.44,64Z"/><path class="cls-2" d="M99.55,203.91c4.94,9.2,14.42,11.34,25.27,11.34,4.74,0,9.74-.41,14.74-.82s10-.81,14.74-.81c10.51,0,19.74,2,24.82,10.45a43.49,43.49,0,0,0-15.76-2.54,147.48,147.48,0,0,0-18.61,1.6,142.37,142.37,0,0,1-17.89,1.61c-12.53,0-22.84-4-27.31-20.83"/><path class="cls-3" d="M99.55,203.91c4.94,9.2,14.42,11.34,25.27,11.34,4.74,0,9.74-.41,14.74-.82s10-.81,14.74-.81c10.51,0,19.74,2,24.82,10.45a43.49,43.49,0,0,0-15.76-2.54,147.48,147.48,0,0,0-18.61,1.6,142.37,142.37,0,0,1-17.89,1.61C114.33,224.74,104,220.75,99.55,203.91Z"/><path class="cls-2" d="M139.75,244c5.92-4.88,9.54-7.68,14-11.36A3.77,3.77,0,0,1,157.5,237c-6.35,5.07-8.49,6.79-14.47,11.65-2.15,0-4.22-3.3-3.28-4.63"/><path class="cls-4" d="M158.4,235.77c-.15-1-.74-3.61-3.28-3.84,5.53-4.71,8.58-7.25,12.77-10.74l2.18-1.83a1.85,1.85,0,0,1,1.19-.44,3.32,3.32,0,0,1,2.71,2,2,2,0,0,1-.07,2.19c-6,4.81-14,11.39-15.5,12.68"/><path class="cls-4" d="M171.26,219.11a1.58,1.58,0,0,0-1.07.4L168,221.36c-4.1,3.41-7.1,5.92-12.42,10.45a4.12,4.12,0,0,1,3,3.6c2.05-1.7,9.53-7.87,15.24-12.47a1.94,1.94,0,0,0,0-2,3.22,3.22,0,0,0-2.55-1.87m0-.38c2,0,4.08,2.86,2.79,4.47-6.71,5.42-15.81,12.94-15.81,12.94s-.17-4-3.47-4h-.14c6.69-5.71,9.74-8.24,15.32-12.89a2,2,0,0,1,1.31-.49"/><path class="cls-4" d="M141.7,244.79a.26.26,0,0,1,0-.36l13.17-10.72h0a.25.25,0,0,1,.31.39c-7.15,5.83-13.17,10.72-13.17,10.72a.16.16,0,0,1-.09.05.26.26,0,0,1-.26-.08"/><path class="cls-5" d="M157.42,232a.25.25,0,0,1,0-.35c7.48-6.09,13.83-11.38,13.84-11.39h0a.24.24,0,0,1,.35,0,.26.26,0,0,1,0,.36s-6.37,5.3-13.84,11.38a.27.27,0,0,1-.1.06.25.25,0,0,1-.25-.09"/><path class="cls-4" d="M145.18,225.53a5,5,0,0,1,3.65,4.66c-1.24.91-13.45,10.54-13.45,10.54l-.18-7.56s5.83-4.42,10-7.64"/><path class="cls-2" d="M146.08,224.94c2.78-2.28,8.24-6.25,10.59-8.39,2.83-2.57,6.44,1.67,4.94,3.43-6,4.81-7.53,6-12.17,9.61a5.09,5.09,0,0,0-3.36-4.65"/><path class="cls-5" d="M135.8,234.62a.26.26,0,0,1,0-.36l9.73-7.45h0a.25.25,0,1,1,.31.4c-5.51,4.21-9.73,7.45-9.73,7.46l-.1,0a.24.24,0,0,1-.26-.09"/><path class="cls-4" d="M148.15,225.19a.25.25,0,0,1,0-.36l10.31-7.91h0a.24.24,0,0,1,.35,0,.25.25,0,0,1,0,.35s-5,3.84-10.33,7.92a.23.23,0,0,1-.1.05.25.25,0,0,1-.25-.09"/><path class="cls-2" d="M107.68,212.81c8.68-7.14,11.48-9.33,20.87-17a5.6,5.6,0,0,0,4.9,5.88L112.74,218.3c-2.38,1.29-6.08-2.89-5.06-5.49"/><path class="cls-4" d="M134.36,200.49h0M152.24,176l-1.35,10.31-16.32,14.54h-.21c-2.2,0-4.94-2.58-4.75-6C135.42,190,152.24,176,152.24,176"/><path class="cls-5" d="M131.06,196.42a.51.51,0,0,1,.08-.71l17.64-14.48a.51.51,0,0,1,.71.07.5.5,0,0,1-.07.71s-8,6.54-17.65,14.47h0a.45.45,0,0,1-.19.11.55.55,0,0,1-.52-.17"/><path class="cls-4" d="M109.77,213.85a.5.5,0,0,1,.08-.71s7.69-6.22,17.44-14.22a.51.51,0,1,1,.65.78c-9.76,8-17.46,14.22-17.46,14.22a.69.69,0,0,1-.19.1.55.55,0,0,1-.52-.17"/><path class="cls-4" d="M121.46,180.44c.56.69,4.43,5.09,5.23,6.1-12.24,10-14,11.51-22.68,18.8a2,2,0,0,1-.58.08c-2.7,0-5.09-4.93-4-6.92,8.7-7.07,22.07-18.06,22.07-18.06"/><path class="cls-2" d="M122.52,179.61c12-10.1,27.78-23.34,27.78-23.34,2.74-.24,5.44,3.65,5,6.51-14.07,11.71-27.54,22.85-27.54,22.85-.76-.95-4.46-5.29-5.26-6"/><path class="cls-4" d="M125,180.56a.51.51,0,0,1,.07-.71c13.19-10.84,26-21.28,26-21.28a.52.52,0,0,1,.71.07.5.5,0,0,1-.07.71l-8,6.58c-4.85,4-11.32,9.28-17.93,14.7h0a.58.58,0,0,1-.19.1.55.55,0,0,1-.52-.17"/><path class="cls-5" d="M100.64,200.67a.51.51,0,0,1,.08-.71L121.33,183a.49.49,0,0,1,.7.07.5.5,0,0,1-.06.71l-14.62,12-6,4.94a.54.54,0,0,1-.2.1.52.52,0,0,1-.52-.17"/><path class="cls-4" d="M139.43,247.81a13.9,13.9,0,0,1-6.23-7.45c-7-19.76,2.5-36.61,10.89-51.48,6.36-11.27,12.39-22,10.1-32.21,12.45,17.83,4.54,32.81-4.55,50-5.1,9.66-10.37,19.65-12.75,31.2-.63,3.08.2,6.34,2.54,9.9"/><path class="cls-5" d="M155.08,158.93c1,9.69-4.63,19.7-10.55,30.2-8.34,14.77-17.78,31.52-10.86,51.06a13.9,13.9,0,0,0,4.21,6,12.37,12.37,0,0,1-1.48-8.36c2.39-11.62,7.67-21.64,12.79-31.33,8.68-16.44,16.27-30.81,5.89-47.55m-2.21-4.87c23,29.2-8.65,50.73-15.48,83.94-.56,2.72-.06,6.27,3.48,11a13.76,13.76,0,0,1-8.14-8.45c-12.94-36.44,29.32-62.4,20.14-86.47"/><path class="cls-2" d="M44.39,116c5.91,6,28.76,16,44.82,19.59,15.37,3.48,54.85,2.59,63.46,20.57-15.11-6-32.32-.07-64.58-6.12-13.32-2.5-34.39-12.46-43.7-34"/><path class="cls-3" d="M44.39,116c5.91,6,28.76,16,44.82,19.59,15.37,3.48,54.85,2.59,63.46,20.57-15.11-6-32.32-.07-64.58-6.12C74.77,147.53,53.7,137.57,44.39,116Z"/><path class="cls-2" d="M99.46,178s9-6.85,16.14-12.38c3.2-1.23,6.83,3.6,5.69,6-9.14,7-25,19.17-25,19.17Z"/><path class="cls-4" d="M122.77,170a7,7,0,0,0-2-4.22,4.38,4.38,0,0,0-2.88-1.51l11-8.68,8-6.34a3.45,3.45,0,0,1,2.45-1,4.77,4.77,0,0,1,4.1,3,2.29,2.29,0,0,1-.37,2.62L135,160.33c-3.22,2.56-6.84,5.43-12.2,9.71"/><path class="cls-4" d="M139.39,148.44a3.34,3.34,0,0,0-2.32,1h0l-8,6.33-10.63,8.4a4.94,4.94,0,0,1,2.54,1.52,7.36,7.36,0,0,1,2,4l11.9-9.47,8.18-6.51a2.11,2.11,0,0,0,.31-2.4,4.6,4.6,0,0,0-3.92-2.85m0-.38c3.09,0,5.85,4,3.86,5.91-6.57,5.25-10.54,8.38-20.67,16.45.1-2.57-2.39-5.92-4.77-5.92a2.07,2.07,0,0,0-.5.05c9-7.12,12.61-9.94,19.51-15.41a3.74,3.74,0,0,1,2.57-1.08"/><path class="cls-4" d="M97,182.11a.5.5,0,0,1,.1-.71s2.06-1.57,5.41-4.13,8-6.14,13.17-10.12h0a.5.5,0,0,1,.61.8c-10.32,8-18.59,14.25-18.59,14.25a.31.31,0,0,1-.18.09.49.49,0,0,1-.52-.18"/><path class="cls-5" d="M120.54,164a.51.51,0,0,1,.09-.71c9.92-7.66,17.17-13.29,17.19-13.3h0a.51.51,0,0,1,.71.09.53.53,0,0,1-.09.71s-7.27,5.64-17.19,13.3a.56.56,0,0,1-.19.09.53.53,0,0,1-.52-.18"/><path class="cls-4" d="M88.38,138.56c-2.6,4.44,2.52,10.32,6.76,8.82,7.68-6.63,11.28-9.67,20.24-16.94-2.93-.58-7.71-5.13-6.77-8.82-9.52,8-20.23,16.94-20.23,16.94"/><path class="cls-2" d="M116.32,128.66l.09,0s-2.35-1.13-.09,0m17.84-28.38-10.42,22.49-7.24,6.53c-2.26-1.11-6-2.58-6.69-8.67,10.06-8.33,24.35-20.35,24.35-20.35"/><path class="cls-4" d="M111.73,122.2a.62.62,0,0,1,.09-.89c10.7-8.76,19.28-15.73,19.28-15.73a.63.63,0,1,1,.79,1l-5.62,4.58c-3.48,2.83-8.3,6.77-13.65,11.15h0a.91.91,0,0,1-.26.13.63.63,0,0,1-.63-.22"/><path class="cls-5" d="M89.66,140.32a.64.64,0,0,1,.09-.89s7.1-5.8,17-13.92a.63.63,0,0,1,.8,1l-17,13.91h0a.6.6,0,0,1-.24.12.65.65,0,0,1-.65-.21"/><path class="cls-2" d="M104.18,112.55c-3.42,1.09-9.75-5.78-8.45-11,11.1-9.15,18.76-15.32,33.77-27.8,2.66-1.26,9.25,4.43,6.87,11.79l-32.19,27"/><path class="cls-4" d="M70.93,138.27A9.93,9.93,0,0,1,63,133.14a3.79,3.79,0,0,1,.23-4.14c4.87-4.09,8.33-7,11.67-9.75,5.06-4.22,9.83-8.2,19.09-16a15.14,15.14,0,0,0,3.56,7.8,8.1,8.1,0,0,0,4.71,2.91c-11.81,9.4-18.1,14.44-29,23.69a4.25,4.25,0,0,1-2.31.62"/><path class="cls-4" d="M93.78,103.76c-9,7.6-13.74,11.53-18.73,15.69-3.34,2.78-6.77,5.64-11.66,9.74a3.54,3.54,0,0,0-.15,3.84,9.64,9.64,0,0,0,7.69,5,4,4,0,0,0,2.17-.58c10.74-9.1,17-14.14,28.59-23.34a8.76,8.76,0,0,1-4.33-2.88,16.15,16.15,0,0,1-3.58-7.46m.47-1.05c-.24,2.68,3.24,10.81,8.66,11.06-11.7,9.31-18.31,14.58-29.51,24.08a4.54,4.54,0,0,1-2.47.67c-4.73,0-10.89-5.82-7.91-9.68C75.45,118.43,78.46,116,94.25,102.71"/><path class="cls-4" d="M97.21,103.84a.74.74,0,0,1,.11-1.06c17.13-14,32.83-26.73,32.83-26.73h0a.76.76,0,0,1,1.07.11.75.75,0,0,1-.11,1.06l-10,8.13C115,90.28,106.84,97,98.27,104a.67.67,0,0,1-.29.15.74.74,0,0,1-.77-.26"/><path class="cls-5" d="M64.67,130.45a.74.74,0,0,1,.11-1.07l7.9-6.44,19.49-15.89h0a.74.74,0,0,1,1.06.11.75.75,0,0,1-.1,1.06l-27.4,22.34a.64.64,0,0,1-.3.14.71.71,0,0,1-.76-.25"/><path class="cls-4" d="M97.94,203.87c-4.87-7.5-7.64-14.63-7.37-19.17,1.23-21.2,20.29-48.79,28.43-60.56l1.3-1.88c.31-.46.64-1,1-1.46,6.28-9.07,18.23-26.32,17.17-45.67,2.57,8.54,4.92,18.41,4.4,23.83-1.06,10.9-4.21,22.26-16.12,42.24-2.51,4.21-6.38,9.43-10.46,15-6.45,8.72-13.77,18.61-17.34,26.75-2.19,5-2.52,13.55-1,21"/><path class="cls-5" d="M139.21,80.44c-1.08,17.38-11.54,32.48-17.28,40.79-.36.52-.7,1-1,1.46l-1.3,1.88c-8.1,11.73-27.07,39.19-28.3,60.17-.21,3.68,1.77,9.35,5.27,15.46-.77-6.52-.21-13.31,1.67-17.59,3.6-8.22,10.94-18.15,17.41-26.9,4.08-5.52,7.93-10.72,10.42-14.9,11.85-19.86,15-31.13,16-41.92.41-4.28-1-11.42-2.91-18.45m-3.78-16.87C137.9,70.24,144.5,90,143.63,99c-1,10.72-4,22.06-16.24,42.54-6.56,11-22,28.5-27.74,41.63-2.58,5.89-2.49,16.76.13,24.67-6.66-9.16-10.28-18-10-23.23C91.13,162.08,112,133,119.68,121.83c7.15-10.42,24.38-33.6,15.75-58.26"/><path class="cls-2" d="M47.87,20.6c16.07,0,39.75,2.25,56.32,11,18.57,9.78,31.15,27.38,32.55,46.49C119.25,51,91.67,45.5,79.16,43.2c-6.06-1.12-14.79-1.56-24.35-1.56-14.25,0-30.35,1-42.13,2.26A66.34,66.34,0,0,1,31.9,21.63a96.52,96.52,0,0,1,16-1"/><path class="cls-3" d="M47.87,20.6c16.07,0,39.75,2.25,56.32,11,18.57,9.78,31.15,27.38,32.55,46.49C119.25,51,91.67,45.5,79.16,43.2c-6.06-1.12-14.79-1.56-24.35-1.56-14.25,0-30.35,1-42.13,2.26A66.34,66.34,0,0,1,31.9,21.63,96.52,96.52,0,0,1,47.87,20.6Z"/><path class="cls-2" d="M44.11,110.18C57.52,99.29,63.9,94.05,78.23,82.43c3.21.48,9.09,8.1,8.35,11.17C71.44,105.52,67.13,109,53.16,120.14c-5.09-.23-10.37-6.17-9-10"/><path class="cls-4" d="M88,91.91c-.86-4.74-5.17-9.63-7.88-10.72,9.7-8.1,15.49-12.88,22.16-18.4l15.36-12.72a3,3,0,0,1,2-.76c1.86,0,4,1.81,5.43,4.63s1.64,5.28.68,6.66C113,70.87,106.89,76,98.45,83.13c-3,2.57-6.38,5.38-10.43,8.78"/><path class="cls-4" d="M119.62,49.56h0a2.84,2.84,0,0,0-1.81.7c-6.37,5.3-11.14,9.24-15.34,12.72-6.61,5.46-12.33,10.19-21.86,18.14,2.87,1.4,6.61,6.08,7.57,10.32,3.92-3.27,7.19-6,10.1-8.5,8.44-7.11,14.54-12.26,27.27-22.52.86-1.28.58-3.83-.73-6.37-1.4-2.73-3.44-4.49-5.2-4.49m0-.51c4.24,0,8.58,8.53,6.3,11.72-17.47,14.08-22.47,18.54-38.07,31.62-.67-4.9-5.45-10.39-8.22-11.1C95.8,67.78,101,63.6,117.49,49.87a3.35,3.35,0,0,1,2.13-.82"/><path class="cls-5" d="M45.49,112.49a.76.76,0,0,1,.11-1.07s15.42-12.66,33-27a.74.74,0,0,1,1.06.11.75.75,0,0,1-.11,1.06c-8.78,7.17-17,13.91-23.08,18.87s-9.91,8.11-9.91,8.12a1,1,0,0,1-.29.15.78.78,0,0,1-.78-.25"/><path class="cls-5" d="M83.35,81.51a.74.74,0,0,1,.1-1.06c18.62-15.18,35.28-28.73,35.28-28.73a.75.75,0,0,1,1.06.11.76.76,0,0,1-.1,1.06L109,61.57C102.53,66.85,93.72,74,84.41,81.62a.85.85,0,0,1-.3.15.73.73,0,0,1-.76-.26"/><path class="cls-4" d="M62.68,60.11c11.94-9.63,19.17-15.17,31.68-25.23,5.57-4.16,13.12,5,10.76,10C92,55.85,83.63,62.6,72.63,71.46,72,67.25,67,59.65,62.68,60.11"/><path class="cls-2" d="M61.12,61.32c3.56,0,9.57,6.1,9.76,11.47-16.38,13.8-33,27.46-33,27.46l6-25.25S55.08,66.11,61,61.33h.09"/><path class="cls-4" d="M38.37,82.54a.76.76,0,0,1,.13-1.06l6.68-5.18c4.16-3.23,10-7.76,16.52-12.89h0a.75.75,0,0,1,1.06.13.76.76,0,0,1-.12,1.06C49.5,74.88,39.43,82.67,39.43,82.67a.67.67,0,0,1-.28.14.75.75,0,0,1-.78-.27"/><path class="cls-5" d="M67.45,59.86a.76.76,0,0,1,.13-1.06L96.17,36.33a.76.76,0,1,1,.93,1.19L68.51,60a.62.62,0,0,1-.28.14.77.77,0,0,1-.78-.26"/><path class="cls-4" d="M41.36,113.9c-11.56-21.26-9.07-36.41-7.8-44.1.09-.51.17-1,.23-1.44,3.65-23.57,13.32-54.13,14.3-57.2,6.64-4.43,15.39-9.5,25-10.33-2.23,9.33-10,34.56-21,57-.18.37-.4.82-.67,1.35C40.6,80.62,37.22,99,41.36,113.9"/><path class="cls-5" d="M72.14,1.69c-9,1.07-17.12,5.77-23.4,10C47.4,15.83,38.1,45.49,34.54,68.48c-.07.45-.15.93-.24,1.45-1.14,7-3.31,20.1,5.13,38.43-2-14,1.75-30.57,11.35-49.53.27-.53.5-1,.68-1.34A326,326,0,0,0,72.14,1.69M74.1,0C72,9.26,63.9,35.51,52.81,58.16,49.76,64.39,31.92,96.39,45.37,122,27.4,94.92,31.81,76.18,33,68.25c3.43-22.14,12.22-50.79,14.41-57.57C55.75,5.11,64.56.53,74.1,0"/><path class="cls-4" d="M264.12,170.67v-95s7.15.11,10.68.11,4.34,3.75,7.25,7.71,24.54,37.83,28.14,43.74c3.61-5.91,25.15-39.67,28.14-43.74s3.74-7.71,7.25-7.71,10.68-.11,10.68-.11v95H340.74V105.83l-30.53,47.41s0,0,0,0h0l-30.53-47.41v64.84Z"/><path class="cls-4" d="M363.78,74.67h62.55s-.81,9.42-3.79,12.83H381.4v25.84h31.28s-2.09,10.42-3.83,12.09H381.4v24.18c0,3.33,1.37,8.75,7.79,8.75h32.74l5.52,13.33H385.19c-6.88,0-21.41-8-21.41-20.05Z"/><path class="cls-4" d="M489,141.35c-.48,6-9.39,17-15.12,17H450.05v-70h23.41C481.39,88.32,489,99.94,489,107s.49,28.31,0,34.36m16.89-1.81V108.41c0-18.18-17.91-33.74-34.64-33.74H432.49v97h42.3c15.85,0,31.12-20.16,31.12-32.15"/><path class="cls-4" d="M513.37,73.64v98.05h17.18V87.61c0-12.94-17.18-14-17.18-14"/><path class="cls-4" d="M586.38,130.43l-21-.1,10.51-32.15Zm36.41,41.26s-33.08-80.31-35.93-87.95-5.47-9.07-9.44-9.07-7.48,0-10.63,9.49-33,87.53-33,87.53h16.73l10-27.5h32.51l10.36,27.5Z"/><path class="cls-4" d="M635,105.83c-.09,8,0,32.31,0,36.28s5.14,15.77,13.89,15.77H663.5c6.17,0,13.76-7.92,13.76-14.11V129.45H656.14L661,117.92h26.68c3.26,0,5.42,4,5.42,8.76v18.19c0,4.17-7.16,26.82-29.18,26.82H645.26c-10.58,0-24.44-14.14-26.78-28.34-1.25-7.57-.83-30-.83-37.69,0-10.12,9.54-31,34.21-31h30.4l-4.58,13.65H653.5c-9.73,0-18.37,8-18.48,17.51"/><path class="cls-2" d="M271.41,197.13v-.56a3.24,3.24,0,0,1,0-.56,2.54,2.54,0,0,1,.84-.25l.94-.1c.71-.07,1.57-.13,2.59-.18s2-.08,3-.08a14.6,14.6,0,0,1,4.42.59,8.44,8.44,0,0,1,3,1.62,6.05,6.05,0,0,1,1.73,2.44,8.36,8.36,0,0,1,.54,3,8.84,8.84,0,0,1-.84,4.22,8.09,8.09,0,0,1-1.81,2.33l-.56.36-.61.41a5,5,0,0,1,1.48.66q.6.41,1.32,1a7.86,7.86,0,0,1,1.35,1.4,7.31,7.31,0,0,1,1,2,8.84,8.84,0,0,1,.4,2.82,12.93,12.93,0,0,1-.88,5,9.34,9.34,0,0,1-6.05,5.51,15.21,15.21,0,0,1-4.55.66c-1.29,0-2.52-.08-3.71-.15s-2.42-.17-3.71-.31Zm5.39,12a4.23,4.23,0,0,1,.63-.05h.74a5.43,5.43,0,0,0,.58,0l.49,0a10.15,10.15,0,0,0,1.62-.15h-.1a3.53,3.53,0,0,0,1.52-1.65,7.28,7.28,0,0,0,.66-3.38,5.46,5.46,0,0,0-1.39-3.71,4.53,4.53,0,0,0-2.92-.92l-.87,0c-.37,0-.69,0-1,.08Zm0,16.37a5.53,5.53,0,0,0,1.11.12l1.07,0a5,5,0,0,0,3.81-1.73q1.57-1.72,1.58-5.54v-.5a2.94,2.94,0,0,0-.05-.51,5.9,5.9,0,0,0-.64-2.19,4.2,4.2,0,0,0-1.19-1.37,4.36,4.36,0,0,0-1.63-.71,9.13,9.13,0,0,0-2-.2h-1a7.29,7.29,0,0,0-1,.05Z"/><path class="cls-2" d="M295.29,229.35a.86.86,0,0,1-.68-.25,1.45,1.45,0,0,1-.23-1v-6c0-1.49,0-3.05,0-4.7s0-3.33,0-5q0-1.53,0-3c0-1,0-2,0-3v-4.68c0-1.35,0-2.43,0-3.22s0-1.32-.07-1.55a2,2,0,0,1,1.47-1.22,14.19,14.19,0,0,1,3.1-.26q.66,0,.81.87a15.82,15.82,0,0,1,.16,2.69v6.3q0,1.73,0,3.48c0,1.17,0,2.33,0,3.48s0,2.28,0,3.38,0,2.18,0,3.23v5c0,1,0,1.8,0,2.44s0,1.15,0,1.52v.72a2.1,2.1,0,0,1-1.48.71A23.89,23.89,0,0,1,295.29,229.35Z"/><path class="cls-2" d="M317.6,194.79a13.43,13.43,0,0,1,5.82,1.17,10.59,10.59,0,0,1,4.07,3.38,15.7,15.7,0,0,1,2.39,5.44,31.1,31.1,0,0,1,.78,7.29q0,8.49-3.3,13.19T317.3,230a13.57,13.57,0,0,1-6-1.22,10.24,10.24,0,0,1-4-3.48,15.93,15.93,0,0,1-2.28-5.49,32.32,32.32,0,0,1-.74-7.29q0-8.79,3.43-13.24T317.6,194.79Zm-7.52,17.94q0,6.61,2.09,9.81a6.2,6.2,0,0,0,5.38,3.2,6,6,0,0,0,5.44-3.25q1.93-3.26,1.93-10.27a26.59,26.59,0,0,0-.58-6,14.24,14.24,0,0,0-1.58-4.12,6.51,6.51,0,0,0-2.39-2.39,6,6,0,0,0-8.28,2.54Q310.08,205.58,310.08,212.73Z"/><path class="cls-2" d="M336.2,195.81l1.27-.13c.54-.05,1.14-.09,1.78-.12l2-.11c.72,0,1.39,0,2,0a18.53,18.53,0,0,1,7.11,1.17,10.8,10.8,0,0,1,4.45,3.28,12.56,12.56,0,0,1,2.31,5,28,28,0,0,1,.66,6.28,31.76,31.76,0,0,1-1.07,8.89,13.37,13.37,0,0,1-3.65,6.1,11.61,11.61,0,0,1-2.37,1.67,13.8,13.8,0,0,1-2.51,1,13.56,13.56,0,0,1-2.49.5,21,21,0,0,1-2.29.13c-1.52,0-2.94,0-4.24-.15s-2.67-.24-4.09-.41V199.47a14.55,14.55,0,0,1,.12-2.19,3.5,3.5,0,0,1,.59-1.37ZM352,211.11a25.49,25.49,0,0,0-.41-4.86,11.47,11.47,0,0,0-1.19-3.43,6.06,6.06,0,0,0-2-2.13,7.44,7.44,0,0,0-2.85-1,13,13,0,0,0-2.89-.3h-1.1a6.67,6.67,0,0,0-.94,0v25.81a24.33,24.33,0,0,0,3.05.16,8.44,8.44,0,0,0,3-.56,6.31,6.31,0,0,0,2.67-2.11,12.27,12.27,0,0,0,1.93-4.35A29.3,29.3,0,0,0,352,211.11Z"/><path class="cls-2" d="M363.19,229.35a.87.87,0,0,1-.69-.25,1.51,1.51,0,0,1-.23-1v-6c0-1.49,0-3.05,0-4.7s0-3.33,0-5c0-1,0-2,0-3s0-2,0-3v-4.68c0-1.35,0-2.43,0-3.22s-.05-1.32-.08-1.55a2,2,0,0,1,1.47-1.22,14.25,14.25,0,0,1,3.1-.26c.44,0,.71.29.82.87a17.24,17.24,0,0,1,.15,2.69v6.3q0,1.73,0,3.48c0,1.17,0,2.33,0,3.48s0,2.28,0,3.38,0,2.18,0,3.23v5c0,1,0,1.8,0,2.44s0,1.15,0,1.52v.72a2.1,2.1,0,0,1-1.47.71A24.1,24.1,0,0,1,363.19,229.35Z"/><path class="cls-2" d="M391.7,228.38c-.21-.57-.4-1.16-.59-1.75s-.36-1.18-.53-1.75c-.24-.75-.47-1.49-.69-2.24s-.48-1.61-.79-2.59h-9.65q-.81,2.44-1.58,4.65t-1.32,3.84a1.21,1.21,0,0,1-.53.63,3.18,3.18,0,0,1-1.45.23,13.17,13.17,0,0,1-1.6-.13,15.73,15.73,0,0,1-1.91-.33l.21-1.09a4.16,4.16,0,0,1,.25-.89q.92-2.75,2.13-6.27c.82-2.36,1.66-4.76,2.55-7.2q1.73-4.73,3.27-9.14t2.52-7.47a4.79,4.79,0,0,1,.33-.92.65.65,0,0,1,.63-.35,1.17,1.17,0,0,0,.26-.1,1.67,1.67,0,0,1,.3-.08,2.22,2.22,0,0,1,.41,0,7.81,7.81,0,0,1,.86-.05h.72a2.43,2.43,0,0,1,1.37.77c.57,1.69,1.17,3.48,1.78,5.38s1.23,3.85,1.88,5.85c.27.78.57,1.69.91,2.74s.69,2.1,1,3.15l1,3c.34,1,.61,1.76.82,2.37h0c.5,1.42,1,2.72,1.39,3.91s.79,2.29,1.1,3.3l.38,1.3c.12.42.24.82.38,1.19l0,.11a.81.81,0,0,1-.31.5,6.88,6.88,0,0,1-1.52.33,12.18,12.18,0,0,1-1.68.13,3.11,3.11,0,0,1-1.06-.18,4.51,4.51,0,0,1-1.22-.73ZM380.77,216h7.06c-.13-.38-.26-.78-.38-1.2s-.23-.82-.33-1.19c-.2-.68-.39-1.33-.56-2s-.34-1.24-.51-1.85l-.66-2c-.17-.5-.3-1-.4-1.32s-.21-.72-.31-1-.2-.7-.3-1.14c-.38,1.18-.78,2.5-1.22,3.93s-.92,3-1.42,4.6l.05-.05Z"/><path class="cls-2" d="M414,210.7a1.27,1.27,0,0,1,.31-.3,1.81,1.81,0,0,1,.28-.23.6.6,0,0,1,.38-.13c.4,0,.92-.06,1.55-.08l2-.05,2,0h1.42a13,13,0,0,1,.36,2.54c.06,1.08.1,2,.1,2.84v11.95c-.38.27-.82.57-1.35.91a10.22,10.22,0,0,1-1.5.81,17.68,17.68,0,0,1-6.2,1h-.84a7.73,7.73,0,0,1-.84-.05,16.9,16.9,0,0,1-4.93-1.22,10.51,10.51,0,0,1-4-2.95,14.08,14.08,0,0,1-2.62-5.13,27.6,27.6,0,0,1-.94-7.72,24,24,0,0,1,1.43-8.92,17.8,17.8,0,0,1,3.25-5.52,10.48,10.48,0,0,1,4.29-2.74,17.63,17.63,0,0,1,5.77-.87,14.55,14.55,0,0,1,3,.28,10.06,10.06,0,0,1,2.21.72,5.49,5.49,0,0,1,1.45.91,3.67,3.67,0,0,1,.74.84,2.9,2.9,0,0,1-.28,1.29,7.23,7.23,0,0,1-.74,1.2l-.3,0a1.6,1.6,0,0,1-1.12-.2h.05l-.3-.16-.36-.15a12,12,0,0,0-4-.66,8,8,0,0,0-6.81,3.25q-2.44,3.25-2.44,10.37a24.76,24.76,0,0,0,.71,6.53,11.42,11.42,0,0,0,1.9,4.07,6.39,6.39,0,0,0,2.75,2.08,9.17,9.17,0,0,0,3.28.58,7.88,7.88,0,0,0,2.05-.23A3.56,3.56,0,0,0,417,225V214.1a4.29,4.29,0,0,1-1-.12,2.22,2.22,0,0,1-.92-.49,2.87,2.87,0,0,1-.71-1A5,5,0,0,1,414,210.7Z"/><path class="cls-2" d="M441.8,212c.61,1.19,1.2,2.37,1.78,3.56s1.12,2.32,1.63,3.4c-.07-1.15-.11-2.44-.13-3.86s0-2.73,0-3.91V199a6.5,6.5,0,0,1,.51-2.79,5.54,5.54,0,0,1,.79-.46,3.13,3.13,0,0,1,.81-.23,8.09,8.09,0,0,1,1.22-.08h2c0,1.53-.06,3.19-.08,5s0,3.7,0,5.7v22.41l-1,.56a3.58,3.58,0,0,1-1.71.45c-.23,0-.61,0-1.11-.05a3.77,3.77,0,0,1-1.33-.3c-.67-1.26-1.39-2.54-2.15-3.87s-1.56-2.69-2.37-4.11v.05l-1.32-2.36c-.44-.8-.9-1.59-1.37-2.37l-2-3.76-1.15-2.36c-.39-.8-.77-1.62-1.14-2.47a11.13,11.13,0,0,1-.48-1.09,10.2,10.2,0,0,0-.49-1,.3.3,0,0,1-.07-.1l-.08-.1c.07,1.52.12,3,.15,4.49s.07,2.76.1,3.84v11.84a9.24,9.24,0,0,1-.1,1.58,4.52,4.52,0,0,1-.35,1.12,3.38,3.38,0,0,1-.66.5,2.45,2.45,0,0,1-.89.28,11.16,11.16,0,0,1-1.32.1q-.79,0-2,0c0-1.46.06-3.07.08-4.85s0-3.69,0-5.72V197.44l-.41-.54a.9.9,0,0,1-.2-.38v-.15a2.06,2.06,0,0,1,.1-.36,4.82,4.82,0,0,1,.82-.28,10.51,10.51,0,0,1,1.06-.2c.38-.05.75-.08,1.12-.1l.87,0a4,4,0,0,1,2,.66c.54,1.09,1.21,2.31,2,3.66s1.66,2.83,2.57,4.42c.27.44.52.88.74,1.3s.45.84.68,1.25.42.74.64,1.11.45.75.68,1.12Z"/><path class="cls-2" d="M468.28,194.79a12.8,12.8,0,0,1,5.66,1.17,10.43,10.43,0,0,1,4,3.38,15.47,15.47,0,0,1,2.34,5.44,31.7,31.7,0,0,1,.76,7.29q0,8.49-3.22,13.19c-2.16,3.13-5.43,4.7-9.84,4.7a13,13,0,0,1-5.87-1.22,10.14,10.14,0,0,1-3.93-3.48,15.71,15.71,0,0,1-2.24-5.49,33.62,33.62,0,0,1-.71-7.29q0-8.79,3.35-13.24T468.28,194.79Zm-8.13,17.94q0,6.81,2.26,10.14a6.79,6.79,0,0,0,5.82,3.33,6.6,6.6,0,0,0,5.84-3.38q2.13-3.37,2.14-10.6a27.83,27.83,0,0,0-.61-6.2,13.21,13.21,0,0,0-1.71-4.24,7.22,7.22,0,0,0-2.56-2.44,6.77,6.77,0,0,0-3.2-.79h-.06a6.59,6.59,0,0,0-5.74,3.41Q460.14,205.36,460.15,212.73Zm6-20.07a.79.79,0,0,1-.48-.36,5.23,5.23,0,0,1-.41-.63A3.82,3.82,0,0,1,465,191a1.75,1.75,0,0,1-.11-.4l.41-.51a4.09,4.09,0,0,1,.51-.51c.54-.47,1.16-1,1.85-1.5s1.38-1,2-1.42,1.26-.78,1.8-1.07a3,3,0,0,1,1.12-.43,1.24,1.24,0,0,1,.68.35,3.37,3.37,0,0,1,.59.74,5.53,5.53,0,0,1,.43.92c.12.32.21.6.28.83s-.24.58-.71.82-1.27.59-2,1-1.43.74-2.14,1.1l-2,1Z"/><path class="cls-2" d="M493.53,194.79a11.9,11.9,0,0,1,4.93.82A5.49,5.49,0,0,1,500.6,197a4.57,4.57,0,0,1-.87,2.49,1.7,1.7,0,0,1-1,.3,2.37,2.37,0,0,1-1.07-.25A7.34,7.34,0,0,0,496,199a8.49,8.49,0,0,0-2-.23,4.74,4.74,0,0,0-3.12.94,3.4,3.4,0,0,0-1.15,2.82v.66a5.24,5.24,0,0,0,.59,1.75,7.5,7.5,0,0,0,1.14,1.55c.51.58,1.12,1.2,1.83,1.88l2,1.88.13.1c.05,0,.07.07.07.11.51.47,1,.94,1.5,1.42s.94.93,1.35,1.37a11.8,11.8,0,0,1,2.39,3.43,9.64,9.64,0,0,1,.76,3.89,9.17,9.17,0,0,1-2.59,6.83q-2.6,2.56-7.57,2.57a14.81,14.81,0,0,1-4.4-.56,6,6,0,0,1-2.46-1.27,1.91,1.91,0,0,1-.76-1.27,4.68,4.68,0,0,1,.4-1.63,10.76,10.76,0,0,1,1-1.88,11.46,11.46,0,0,0,2.87,1.68,8.41,8.41,0,0,0,3.23.66,4.49,4.49,0,0,0,3.32-1.24,4.79,4.79,0,0,0,1.25-3.54,5.85,5.85,0,0,0-.69-2.84,12.19,12.19,0,0,0-2.41-2.9,9.91,9.91,0,0,0-.87-1l-1-1-.28-.25a4.12,4.12,0,0,1-.38-.36l-.61-.61c-.61-.61-1.19-1.18-1.73-1.7a16.41,16.41,0,0,1-1.42-1.55,10.63,10.63,0,0,1-1.83-3.08,8.57,8.57,0,0,1-.51-2.87,8.19,8.19,0,0,1,.54-2.94,7.08,7.08,0,0,1,1.67-2.57,8.32,8.32,0,0,1,2.95-1.83A12.16,12.16,0,0,1,493.53,194.79Z"/><path class="cls-2" d="M517.27,199.62v22.46c0,1.43,0,2.66,0,3.71s0,2,.08,2.75a3.93,3.93,0,0,1-.66.43,2.94,2.94,0,0,1-.89.25,11.16,11.16,0,0,1-1.32.1q-.79,0-2,0a4.7,4.7,0,0,1-.61-2.39V199.62h-5.95c-.37,0-.77,0-1.19-.05s-.87-.08-1.35-.15a1.59,1.59,0,0,1-.1-.43v-.28a5.88,5.88,0,0,1,.13-1.17,4.67,4.67,0,0,1,.33-1.12,1.69,1.69,0,0,1,.33-.56l.43-.46h.71l.36,0a2.68,2.68,0,0,0,.4,0c.58,0,1.22.06,1.91.06h18.37a11.54,11.54,0,0,1-.1,1.6,13.45,13.45,0,0,1-.25,1.34,1.26,1.26,0,0,1-.69.82c-.36.17-.62.28-.79.35Z"/><path class="cls-2" d="M530.22,229.35a.86.86,0,0,1-.68-.25,1.51,1.51,0,0,1-.23-1v-6c0-1.49,0-3.05,0-4.7s0-3.33,0-5q0-1.53,0-3c0-1,0-2,0-3v-4.68c0-1.35,0-2.43,0-3.22s0-1.32-.07-1.55a2,2,0,0,1,1.47-1.22,14.19,14.19,0,0,1,3.1-.26q.66,0,.81.87a15.82,15.82,0,0,1,.16,2.69v6.3q0,1.73,0,3.48c0,1.17,0,2.33,0,3.48s0,2.28,0,3.38,0,2.18,0,3.23v5c0,1,0,1.8,0,2.44s0,1.15,0,1.52v.72a2.1,2.1,0,0,1-1.48.71A23.89,23.89,0,0,1,530.22,229.35Z"/><path class="cls-2" d="M553.4,194.79a14.55,14.55,0,0,1,3,.28,11.06,11.06,0,0,1,2.21.71,6.16,6.16,0,0,1,1.45.92,3.94,3.94,0,0,1,.74.84,5,5,0,0,1-.23,1.55,4.11,4.11,0,0,1-.64,1.19h-.56a1,1,0,0,1-.58-.05l-.64-.3a.85.85,0,0,0-.17-.08l-.18-.08v0c-.37-.16-.74-.31-1.09-.43a7.74,7.74,0,0,0-1.15-.28,6.31,6.31,0,0,0-.71-.07l-.81,0h-.51a2.94,2.94,0,0,0-.51.05,7.62,7.62,0,0,0-3.1,1,7.74,7.74,0,0,0-2.59,2.52,13.74,13.74,0,0,0-1.78,4.24,24.84,24.84,0,0,0-.66,6.13q0,6.5,2.29,9.5a7.63,7.63,0,0,0,6.45,3,9.5,9.5,0,0,0,1.75-.16,13.62,13.62,0,0,0,1.73-.4c.56-.17,1.08-.35,1.55-.54a5.78,5.78,0,0,0,1.17-.58,4.92,4.92,0,0,1,.71,2.08,3.5,3.5,0,0,1-1.32,2.44,6.25,6.25,0,0,1-2.41,1.17,13.58,13.58,0,0,1-3.89.51,18,18,0,0,1-5.69-.84,10,10,0,0,1-4.32-2.77,13,13,0,0,1-2.75-5.16,28.47,28.47,0,0,1-1-8q0-9.56,4.47-14.48a11,11,0,0,1,4.6-3.1A16.4,16.4,0,0,1,553.4,194.79Z"/><path class="cls-2" d="M576.67,194.79a13.43,13.43,0,0,1,5.82,1.17,10.59,10.59,0,0,1,4.07,3.38,15.5,15.5,0,0,1,2.38,5.44,30.55,30.55,0,0,1,.79,7.29q0,8.49-3.3,13.19T576.37,230a13.57,13.57,0,0,1-6-1.22,10.24,10.24,0,0,1-4-3.48,15.94,15.94,0,0,1-2.29-5.49,32.94,32.94,0,0,1-.73-7.29q0-8.79,3.43-13.24T576.67,194.79Zm-7.52,17.94q0,6.61,2.08,9.81a6.22,6.22,0,0,0,5.39,3.2,6,6,0,0,0,5.44-3.25q1.94-3.26,1.93-10.27a26.53,26.53,0,0,0-.59-6,14,14,0,0,0-1.57-4.12,6.51,6.51,0,0,0-2.39-2.39,6,6,0,0,0-8.28,2.54Q569.15,205.58,569.15,212.73Z"/></g></g></svg>