<svg xmlns="http://www.w3.org/2000/svg" viewBox="0 0 372.94 491.14"><defs><style>.cls-1{fill:#beca30;}.cls-2{fill:#2b4b7d;}.cls-3{fill:none;stroke:#fff;stroke-miterlimit:10;stroke-width:0.41px;}.cls-4{fill:#85c0ce;}.cls-5{fill:#fff;}.cls-6{fill:#62c2d1;}.cls-7{fill:#004a80;}</style></defs><g id="Layer_2" data-name="Layer 2"><g id="Camada_1" data-name="Camada 1"><path class="cls-1" d="M89.53,70.1s-24.17,0-24.17,24.18V275.64s0,24.18,24.17,24.18H277.12s24.17,0,24.17-24.18V94.28s0-24.18-24.17-24.18Z"/><path class="cls-2" d="M174.33,223.23c5.42,10.06,15.79,12.41,27.68,12.41,5.18,0,10.66-.45,16.14-.9s10.95-.89,16.14-.89c11.5,0,21.59,2.19,27.16,11.44a47.87,47.87,0,0,0-17.25-2.79,162.37,162.37,0,0,0-20.37,1.76A157.28,157.28,0,0,1,204.24,246c-13.72,0-25-4.36-29.91-22.79"/><path class="cls-3" d="M174.33,223.23c5.42,10.06,15.79,12.41,27.68,12.41,5.18,0,10.66-.45,16.14-.9s10.95-.89,16.14-.89c11.5,0,21.59,2.19,27.16,11.44a47.87,47.87,0,0,0-17.25-2.79,162.37,162.37,0,0,0-20.37,1.76A157.28,157.28,0,0,1,204.24,246C190.52,246,179.24,241.66,174.33,223.23Z"/><path class="cls-2" d="M218.35,267.14c6.48-5.36,10.43-8.42,15.35-12.44a4.1,4.1,0,0,1,4.07,4.74c-7,5.55-9.29,7.44-15.83,12.76-2.35,0-4.63-3.61-3.59-5.06"/><path class="cls-4" d="M238.75,258.1c-.14-1.07-.79-4-3.57-4.2,6-5.16,9.39-7.94,14-11.77l2.39-2a2,2,0,0,1,1.3-.49,3.68,3.68,0,0,1,3,2.17,2.19,2.19,0,0,1-.09,2.4c-6.52,5.26-15.26,12.47-17,13.88"/><path class="cls-4" d="M252.84,239.86a1.77,1.77,0,0,0-1.17.44l-2.43,2c-4.48,3.73-7.76,6.48-13.58,11.43,2.09.44,3,2.43,3.25,3.94,2.25-1.85,10.45-8.61,16.69-13.64a2.1,2.1,0,0,0,0-2.15,3.49,3.49,0,0,0-2.79-2m0-.41c2.2,0,4.47,3.13,3,4.9-7.34,5.93-17.3,14.16-17.3,14.16s-.18-4.42-3.8-4.42h-.16c7.33-6.24,10.67-9,16.77-14.11a2.22,2.22,0,0,1,1.44-.53"/><path class="cls-4" d="M220.48,268a.29.29,0,0,1,0-.39l14.42-11.74h0a.28.28,0,0,1,.39,0,.29.29,0,0,1,0,.39L220.87,268l-.1.05a.29.29,0,0,1-.29-.09"/><path class="cls-5" d="M237.68,254a.28.28,0,0,1,0-.39c8.18-6.66,15.13-12.45,15.14-12.46a.28.28,0,1,1,.36.42s-7,5.81-15.15,12.47a.24.24,0,0,1-.1,0,.27.27,0,0,1-.29-.09"/><path class="cls-4" d="M224.29,246.9a5.42,5.42,0,0,1,4,5.09c-1.35,1-14.73,11.54-14.73,11.54l-.19-8.27s6.37-4.85,10.92-8.36"/><path class="cls-2" d="M225.28,246.24c3-2.49,9-6.84,11.59-9.17,3.1-2.83,7,1.82,5.4,3.75-6.52,5.27-8.24,6.52-13.31,10.51a5.59,5.59,0,0,0-3.68-5.09"/><path class="cls-5" d="M214,256.84a.27.27,0,0,1,.05-.39l10.65-8.16h0a.27.27,0,0,1,.38.05.28.28,0,0,1-.05.39c-6,4.61-10.64,8.15-10.65,8.16l-.1.05a.27.27,0,0,1-.29-.1"/><path class="cls-4" d="M227.54,246.51a.27.27,0,0,1,.05-.38c5.84-4.47,11.29-8.66,11.3-8.67h0a.27.27,0,0,1,.39,0,.28.28,0,0,1-.05.39s-5.46,4.2-11.3,8.66a.24.24,0,0,1-.1.05.27.27,0,0,1-.29-.1"/><path class="cls-2" d="M183.24,233c9.51-7.82,12.56-10.22,22.86-18.59a6.11,6.11,0,0,0,5.35,6.44c-12.4,10-22.67,18.16-22.67,18.16-2.61,1.41-6.65-3.17-5.54-6"/><path class="cls-4" d="M212.45,219.48h0M232,192.68,230.54,204l-17.86,15.92h-.23c-2.41,0-5.41-2.82-5.21-6.51C213.6,208,232,192.68,232,192.68"/><path class="cls-5" d="M208.84,215a.55.55,0,0,1,.08-.78c10.6-8.69,19.3-15.83,19.31-15.85a.56.56,0,0,1,.71.86l-19.32,15.84h0a.49.49,0,0,1-.22.1.53.53,0,0,1-.56-.18"/><path class="cls-4" d="M185.53,234.1a.56.56,0,0,1,.09-.78s8.42-6.81,19.1-15.56a.55.55,0,0,1,.7.85c-10.69,8.76-19.11,15.57-19.11,15.57a.61.61,0,0,1-.21.11.56.56,0,0,1-.57-.19"/><path class="cls-4" d="M198.32,197.53c.62.76,4.86,5.58,5.74,6.68-13.4,10.95-15.27,12.6-24.84,20.58a2.27,2.27,0,0,1-.63.08c-3,0-5.57-5.4-4.43-7.57,9.53-7.73,24.16-19.77,24.16-19.77"/><path class="cls-2" d="M199.49,196.62c13.13-11.06,30.41-25.54,30.41-25.54,3-.27,6,4,5.49,7.11-15.4,12.83-30.14,25-30.14,25-.84-1-4.89-5.79-5.76-6.59"/><path class="cls-4" d="M202.17,197.66a.55.55,0,0,1,.08-.78c14.43-11.86,28.42-23.29,28.42-23.29a.54.54,0,0,1,.77.08.56.56,0,0,1-.08.78l-8.79,7.19L203,197.73h0a.51.51,0,0,1-.22.11.53.53,0,0,1-.56-.18"/><path class="cls-5" d="M175.54,219.68a.55.55,0,0,1,.07-.78l22.57-18.55a.55.55,0,0,1,.7.86l-16,13.14-6.58,5.4a.61.61,0,0,1-.21.11.57.57,0,0,1-.56-.18"/><path class="cls-4" d="M218,271.28a15.11,15.11,0,0,1-6.81-8.16c-7.68-21.63,2.73-40.08,11.92-56.36,7-12.32,13.56-24,11.05-35.25,13.64,19.51,5,35.91-5,54.79-5.58,10.57-11.35,21.49-13.95,34.14-.69,3.37.21,6.94,2.77,10.84"/><path class="cls-5" d="M235.12,174c1.12,10.61-5.06,21.56-11.54,33.06-9.13,16.17-19.48,34.5-11.88,55.9a15.18,15.18,0,0,0,4.6,6.55,13.5,13.5,0,0,1-1.62-9.16c2.61-12.72,8.4-23.69,14-34.29,9.5-18,17.81-33.74,6.44-52.06m-2.4-5.32c25.15,32-9.48,55.52-17,91.89-.61,3-.07,6.85,3.81,12a15.06,15.06,0,0,1-8.91-9.25c-14.16-39.9,32.1-68.31,22.06-94.65"/><path class="cls-2" d="M113.89,127c6.48,6.62,31.51,17.47,49.1,21.45,16.84,3.82,60.07,2.84,69.5,22.52-16.55-6.59-35.4-.08-70.72-6.7-14.6-2.74-37.67-13.64-47.88-37.27"/><path class="cls-3" d="M113.89,127c6.48,6.62,31.51,17.47,49.1,21.45,16.84,3.82,60.07,2.84,69.5,22.52-16.55-6.59-35.4-.08-70.72-6.7C147.17,161.5,124.1,150.6,113.89,127Z"/><path class="cls-2" d="M174.24,194.89s9.87-7.51,17.67-13.57c3.51-1.33,7.47,4,6.23,6.54-10,7.65-27.33,21-27.33,21Z"/><path class="cls-4" d="M199.76,186.14a7.63,7.63,0,0,0-2.17-4.61,4.77,4.77,0,0,0-3.15-1.66c5.17-4.09,8.69-6.87,12-9.5l8.79-6.94a3.85,3.85,0,0,1,2.68-1.14,5.23,5.23,0,0,1,4.49,3.25,2.51,2.51,0,0,1-.4,2.87l-8.92,7.1-13.36,10.63"/><path class="cls-4" d="M218,162.5a3.64,3.64,0,0,0-2.53,1.07h0l-8.79,6.94c-3.3,2.59-6.69,5.27-11.65,9.19a5.44,5.44,0,0,1,2.78,1.66,8.07,8.07,0,0,1,2.19,4.36c5.69-4.54,9.57-7.62,13-10.37l8.95-7.12a2.35,2.35,0,0,0,.34-2.63,5.06,5.06,0,0,0-4.3-3.12m0-.41c3.38,0,6.4,4.39,4.23,6.47-7.2,5.74-11.54,9.17-22.62,18,.11-2.83-2.63-6.49-5.22-6.49a2.6,2.6,0,0,0-.56.06c9.83-7.8,13.8-10.89,21.36-16.88a4.06,4.06,0,0,1,2.81-1.17"/><path class="cls-4" d="M171.57,199.36a.56.56,0,0,1,.1-.78l5.93-4.53c3.68-2.81,8.77-6.71,14.42-11.07a.55.55,0,1,1,.67.87c-11.31,8.73-20.35,15.61-20.35,15.61a.54.54,0,0,1-.2.1.56.56,0,0,1-.57-.2"/><path class="cls-5" d="M197.32,179.55a.54.54,0,0,1,.1-.77c10.86-8.38,18.79-14.55,18.81-14.56a.56.56,0,0,1,.78.09.57.57,0,0,1-.1.78s-7.95,6.18-18.82,14.56a.54.54,0,0,1-.2.1.55.55,0,0,1-.57-.2"/><path class="cls-4" d="M162.11,151.68c-2.84,4.86,2.76,11.3,7.4,9.66,8.42-7.26,12.35-10.59,22.16-18.55-3.21-.63-8.44-5.61-7.41-9.65-10.43,8.77-22.15,18.54-22.15,18.54"/><path class="cls-2" d="M192.7,140.84l.1,0s-2.56-1.23-.1,0m19.53-31.07L200.82,134.4l-7.92,7.15c-2.48-1.22-6.62-2.83-7.33-9.49,11-9.12,26.66-22.29,26.66-22.29"/><path class="cls-4" d="M187.67,133.78a.7.7,0,0,1,.09-1c11.72-9.59,21.12-17.22,21.12-17.22a.7.7,0,0,1,1,.1.69.69,0,0,1-.1,1l-6.16,5c-3.82,3.1-9.09,7.41-15,12.2h0a.59.59,0,0,1-.27.14.7.7,0,0,1-.7-.23"/><path class="cls-5" d="M163.52,153.61a.69.69,0,0,1,.1-1s7.76-6.36,18.61-15.24a.69.69,0,1,1,.87,1.07L164.49,153.7a.68.68,0,0,1-1-.09"/><path class="cls-2" d="M179.41,123.22c-3.74,1.18-10.68-6.33-9.24-12,12.14-10,20.52-16.78,37-30.44,2.91-1.38,10.12,4.86,7.52,12.91l-35.24,29.56"/><path class="cls-4" d="M143,151.37c-3.21,0-7.18-2.57-8.67-5.62a4.13,4.13,0,0,1,.23-4.53c5.35-4.48,9.12-7.63,12.79-10.68,5.53-4.61,10.76-9,20.89-17.5a16.68,16.68,0,0,0,3.91,8.53,8.83,8.83,0,0,0,5.15,3.18c-12.93,10.29-19.82,15.81-31.78,25.94a4.6,4.6,0,0,1-2.52.68"/><path class="cls-4" d="M168,113.58c-9.88,8.32-15.05,12.63-20.52,17.19-3.64,3-7.4,6.17-12.75,10.66a3.87,3.87,0,0,0-.17,4.2,10.52,10.52,0,0,0,8.42,5.46,4.35,4.35,0,0,0,2.37-.64c11.76-10,18.64-15.48,31.3-25.55a9.46,9.46,0,0,1-4.73-3.15,17.6,17.6,0,0,1-3.92-8.17m.5-1.14c-.26,2.93,3.56,11.83,9.49,12.11-12.81,10.19-20,16-32.31,26.35a4.92,4.92,0,0,1-2.7.74c-5.19,0-11.93-6.38-8.65-10.59,13.6-11.41,16.89-14.07,34.17-28.61"/><path class="cls-4" d="M171.78,113.68a.83.83,0,0,1,.11-1.17c18.76-15.3,36-29.26,36-29.26h0a.83.83,0,0,1,1,1.29L198,93.43c-6.64,5.4-15.63,12.72-25,20.37a.74.74,0,0,1-.32.16.81.81,0,0,1-.84-.28"/><path class="cls-5" d="M136.15,142.8a.83.83,0,0,1,.12-1.16l8.65-7,21.34-17.41h0a.83.83,0,1,1,1.05,1.28l-30,24.45a.9.9,0,0,1-.32.17.85.85,0,0,1-.85-.29"/><path class="cls-4" d="M172.58,223.18c-5.33-8.22-8.37-16-8.08-21,1.36-23.21,22.22-53.4,31.13-66.3l1.42-2,1.1-1.59c6.88-9.94,19.95-28.82,18.81-50,2.8,9.35,5.38,20.16,4.8,26.09-1.15,11.94-4.6,24.37-17.65,46.24-2.75,4.61-7,10.33-11.45,16.37-7.06,9.56-15.06,20.38-19,29.29-2.4,5.49-2.77,14.84-1.11,23"/><path class="cls-5" d="M217.76,88.06c-1.18,19-12.63,35.56-18.93,44.66-.38.56-.75,1.09-1.1,1.59l-1.42,2.06c-8.87,12.83-29.64,42.9-31,65.86-.23,4,1.94,10.24,5.77,16.93-.83-7.14-.23-14.57,1.83-19.26,3.95-9,12-19.86,19.06-29.44,4.46-6,8.68-11.74,11.41-16.32,13-21.73,16.39-34.06,17.54-45.89.45-4.67-1.11-12.49-3.18-20.19m-4.14-18.47c2.7,7.3,9.92,29,9,38.82-1.14,11.74-4.38,24.16-17.77,46.58-7.18,12-24.07,31.2-30.37,45.58-2.83,6.44-2.73,18.34.14,27-7.29-10-11.25-19.66-10.91-25.43,1.44-24.71,24.27-56.52,32.69-68.77,7.84-11.41,26.7-36.78,17.25-63.78"/><path class="cls-2" d="M117.76,22.56c17.59,0,43.53,2.46,61.65,12,20.34,10.7,34.11,30,35.64,50.89-19.14-29.6-49.34-35.63-63-38.15-6.63-1.22-16.19-1.71-26.65-1.71-15.61,0-33.22,1.09-46.12,2.48,5.43-10,11.55-17,21-24.38a104.61,104.61,0,0,1,17.47-1.12"/><path class="cls-3" d="M117.76,22.56c17.59,0,43.53,2.46,61.65,12,20.34,10.7,34.11,30,35.64,50.89-19.14-29.6-49.34-35.63-63-38.15-6.63-1.22-16.19-1.71-26.65-1.71-15.61,0-33.22,1.09-46.12,2.48,5.43-10,11.55-17,21-24.38A104.61,104.61,0,0,1,117.76,22.56Z"/><path class="cls-2" d="M113.65,120.62C128.33,108.69,135.32,103,151,90.24c3.52.52,9.95,8.87,9.14,12.23-16.57,13-21.29,16.87-36.59,29.05-5.56-.26-11.35-6.76-9.9-10.9"/><path class="cls-4" d="M161.72,100.61c-.94-5.18-5.65-10.53-8.63-11.73C163.72,80,170,74.78,177.35,68.74c4.68-3.88,9.82-8.12,16.81-13.93a3.35,3.35,0,0,1,2.16-.83c2,0,4.35,2,5.93,5.07s1.8,5.78.75,7.29C189.06,77.58,182.38,83.21,173.14,91c-3.33,2.8-7,5.88-11.42,9.6"/><path class="cls-4" d="M196.32,54.26h0a3,3,0,0,0-2,.77l-16.8,13.91c-7.23,6-13.5,11.16-23.93,19.87,3.14,1.53,7.23,6.65,8.29,11.3,4.28-3.59,7.87-6.62,11.06-9.31,9.23-7.79,15.91-13.43,29.84-24.65.95-1.41.63-4.2-.79-7-1.54-3-3.77-4.91-5.69-4.91m0-.56c4.63,0,9.39,9.33,6.88,12.83-19.11,15.41-24.59,20.3-41.68,34.61-.72-5.37-6-11.37-9-12.15C170.23,74.21,175.88,69.63,194,54.6a3.59,3.59,0,0,1,2.33-.9"/><path class="cls-5" d="M115.16,123.14a.83.83,0,0,1,.12-1.17s16.88-13.86,36.12-29.54a.83.83,0,1,1,1,1.28c-9.62,7.84-18.65,15.23-25.28,20.65l-10.84,8.89a.9.9,0,0,1-.32.17.84.84,0,0,1-.85-.28"/><path class="cls-5" d="M156.6,89.23a.82.82,0,0,1,.12-1.16c20.38-16.62,38.61-31.45,38.62-31.45a.82.82,0,1,1,1,1.28l-11.66,9.5c-7.11,5.78-16.76,13.65-26.95,21.95a.88.88,0,0,1-.32.16.82.82,0,0,1-.85-.28"/><path class="cls-4" d="M134,65.8c13.07-10.53,21-16.6,34.68-27.62,6.1-4.56,14.37,5.48,11.78,10.94-14.43,12-23.54,19.41-35.57,29.1-.7-4.6-6.16-12.91-10.89-12.42"/><path class="cls-2" d="M132.28,67.13c3.88,0,10.48,6.68,10.67,12.55-17.93,15.11-36.1,30.07-36.1,30.07l6.52-27.64s12.28-9.74,18.81-15h.1"/><path class="cls-4" d="M107.36,90.36a.84.84,0,0,1,.15-1.17l7.31-5.66c4.55-3.54,10.9-8.49,18.09-14.12a.82.82,0,0,1,1.16.15.83.83,0,0,1-.14,1.16C119.55,82,108.53,90.5,108.53,90.5a.69.69,0,0,1-.31.15.82.82,0,0,1-.86-.29"/><path class="cls-5" d="M139.2,65.53a.84.84,0,0,1,.14-1.17l31.29-24.59a.84.84,0,0,1,1.17.14.85.85,0,0,1-.14,1.17s-14.74,11.57-31.29,24.59a1.1,1.1,0,0,1-.31.15.84.84,0,0,1-.86-.29"/><path class="cls-4" d="M110.64,124.69C98,101.41,100.71,84.84,102.1,76.42c.09-.57.18-1.09.25-1.58,4-25.81,14.58-59.26,15.66-62.62C125.28,7.37,134.85,1.82,145.42.9c-2.44,10.23-11,37.84-23,62.4-.19.4-.44.89-.74,1.48-11.88,23.48-15.58,43.58-11,59.91"/><path class="cls-5" d="M144.34,1.85C134.52,3,125.59,8.17,118.71,12.74,117.25,17.33,107.07,49.8,103.17,75c-.08.49-.16,1-.25,1.58-1.26,7.63-3.63,22,5.6,42.07-2.22-15.3,1.93-33.46,12.44-54.22.29-.58.54-1.07.73-1.46A356.57,356.57,0,0,0,144.34,1.85M146.48,0c-2.26,10.15-11.16,38.87-23.3,63.67-3.34,6.81-22.87,41.85-8.15,69.88-19.68-29.64-14.84-50.16-13.5-58.83,3.76-24.24,13.38-55.6,15.78-63C126.4,5.6,136,.58,146.48,0"/><path class="cls-6" d="M0,439.59V357s6.22.1,9.28.1,3.78,3.25,6.3,6.7,21.33,32.88,24.47,38c3.14-5.14,21.86-34.48,24.47-38s3.24-6.7,6.3-6.7,9.28-.1,9.28-.1v82.55H66.6V383.23L40.07,424.44h0L13.49,383.23v56.36Z"/><path class="cls-6" d="M86.64,356.13H141s-.69,8.19-3.29,11.15H102v22.47h27.2s-1.81,9.06-3.33,10.51H102v21c0,2.9,1.19,7.61,6.78,7.61h28.46l4.8,11.59H105.25c-6,0-18.61-7-18.61-17.43Z"/><path class="cls-6" d="M195.52,414.1c-.42,5.25-8.16,14.79-13.14,14.79H161.64V368H182c6.89,0,13.53,10.1,13.53,16.23s.42,24.61,0,29.87m14.68-1.57V385.46c0-15.8-15.57-29.33-30.12-29.33h-33.7v84.35h36.76c13.79,0,27.06-17.53,27.06-28"/><path class="cls-6" d="M216.69,355.23v85.25h14.93v-73.1c0-11.25-14.93-12.15-14.93-12.15"/><path class="cls-6" d="M280.15,404.61l-18.28-.08,9.14-28Zm31.66,35.87S283.06,370.66,280.58,364s-4.76-7.89-8.21-7.89-6.51,0-9.25,8.25-28.66,76.1-28.66,76.1H249l8.69-23.91H286l9,23.91Z"/><path class="cls-6" d="M322.44,383.23c-.08,7,0,28.08,0,31.53s4.47,13.72,12.08,13.72H347.2c5.37,0,12-6.89,12-12.27V403.76H340.8l4.23-10h23.19c2.84,0,4.72,3.52,4.72,7.61v15.81c0,3.63-6.23,23.32-25.37,23.32H331.35c-9.2,0-21.25-12.29-23.29-24.63-1.09-6.59-.72-26.11-.72-32.77,0-8.81,8.3-26.95,29.75-26.95h26.42l-4,11.87h-21c-8.46,0-16,7-16.07,15.23"/><path class="cls-7" d="M48.1,462.6v-.49a3.6,3.6,0,0,1,0-.49,2.45,2.45,0,0,1,.73-.22l.82-.08c.62-.06,1.37-.11,2.25-.16s1.76-.07,2.61-.07a12.67,12.67,0,0,1,3.84.51A7.26,7.26,0,0,1,61,463a5.32,5.32,0,0,1,1.51,2.12,7.49,7.49,0,0,1,.46,2.63,7.59,7.59,0,0,1-.73,3.66,7.24,7.24,0,0,1-1.57,2c-.15.08-.31.19-.48.3l-.53.36a4.83,4.83,0,0,1,1.28.57c.35.24.73.52,1.15.84a6.84,6.84,0,0,1,1.17,1.22,6.19,6.19,0,0,1,.9,1.76,7.56,7.56,0,0,1,.35,2.46,11.09,11.09,0,0,1-.77,4.35,8.13,8.13,0,0,1-5.26,4.79,13.23,13.23,0,0,1-4,.58c-1.12,0-2.19-.08-3.22-.14s-2.11-.14-3.23-.26ZM52.78,473a3.36,3.36,0,0,1,.56,0H54l.5,0,.42,0a8.5,8.5,0,0,0,1.42-.13h-.09a3,3,0,0,0,1.32-1.43,6.21,6.21,0,0,0,.58-2.94,3.84,3.84,0,0,0-.05-.71,3.47,3.47,0,0,0-1.17-2.52,3.93,3.93,0,0,0-2.54-.79l-.75,0-.84.07Zm0,14.23a5.1,5.1,0,0,0,1,.11l.93,0a4.34,4.34,0,0,0,3.32-1.5q1.36-1.5,1.37-4.82v-.44a2.28,2.28,0,0,0,0-.44,5.08,5.08,0,0,0-.55-1.9,3.57,3.57,0,0,0-1-1.19,3.75,3.75,0,0,0-1.41-.62,8,8,0,0,0-1.77-.18h-.88a7.16,7.16,0,0,0-.89,0Z"/><path class="cls-7" d="M68.86,490.61a.78.78,0,0,1-.59-.22,1.26,1.26,0,0,1-.2-.84v-5.26c0-1.3,0-2.66,0-4.09s0-2.89,0-4.39c0-.89,0-1.76,0-2.63s0-1.73,0-2.59v-4.06c0-1.18,0-2.11,0-2.81s0-1.14-.07-1.34a1.73,1.73,0,0,1,1.28-1.06,12.18,12.18,0,0,1,2.7-.23c.38,0,.61.26.7.76a14.42,14.42,0,0,1,.14,2.34v5.48c0,1,0,2,0,3s0,2,0,3,0,2,0,2.94,0,1.89,0,2.8v4.33c0,.86,0,1.56,0,2.12s0,1,0,1.33v.62a1.81,1.81,0,0,1-1.28.61A20,20,0,0,1,68.86,490.61Z"/><path class="cls-7" d="M88.26,460.56a11.69,11.69,0,0,1,5.06,1,9.15,9.15,0,0,1,3.53,2.94,13.42,13.42,0,0,1,2.08,4.73,26.62,26.62,0,0,1,.68,6.34q0,7.38-2.87,11.46T88,491.14a11.83,11.83,0,0,1-5.21-1.06,9,9,0,0,1-3.51-3,13.8,13.8,0,0,1-2-4.77,28.39,28.39,0,0,1-.64-6.34q0-7.65,3-11.51T88.26,460.56Zm-6.54,15.6q0,5.74,1.81,8.53a5.43,5.43,0,0,0,4.69,2.78,5.22,5.22,0,0,0,4.72-2.83c1.12-1.88,1.68-4.86,1.68-8.92a23,23,0,0,0-.51-5.21,12.06,12.06,0,0,0-1.37-3.58,5.5,5.5,0,0,0-2.07-2.08,5.34,5.34,0,0,0-2.59-.66,5.22,5.22,0,0,0-4.61,2.87C82.3,469,81.72,472,81.72,476.16Z"/><path class="cls-7" d="M104.43,461.45l1.1-.11c.47,0,1-.08,1.55-.11l1.77-.09c.62,0,1.2-.05,1.76-.05a16.1,16.1,0,0,1,6.19,1,9.37,9.37,0,0,1,3.86,2.85,11,11,0,0,1,2,4.33,24.47,24.47,0,0,1,.57,5.46,27.86,27.86,0,0,1-.93,7.73,11.58,11.58,0,0,1-3.18,5.3,10.41,10.41,0,0,1-2,1.46,12.65,12.65,0,0,1-2.19.9,11.67,11.67,0,0,1-2.16.44,17.93,17.93,0,0,1-2,.12c-1.33,0-2.56-.05-3.69-.14s-2.32-.2-3.56-.35V464.63a12.31,12.31,0,0,1,.11-1.9,3,3,0,0,1,.51-1.19Zm13.69,13.3a21.69,21.69,0,0,0-.35-4.22,9.86,9.86,0,0,0-1-3,5.09,5.09,0,0,0-1.74-1.85,6.42,6.42,0,0,0-2.48-.88,10.91,10.91,0,0,0-2.51-.27h-1a6.44,6.44,0,0,0-.82,0V487a22.3,22.3,0,0,0,2.65.13,7.43,7.43,0,0,0,2.61-.48,5.5,5.5,0,0,0,2.32-1.84,10.58,10.58,0,0,0,1.67-3.78A25.3,25.3,0,0,0,118.12,474.75Z"/><path class="cls-7" d="M127.89,490.61a.78.78,0,0,1-.6-.22,1.32,1.32,0,0,1-.2-.84v-5.26c0-1.3,0-2.66,0-4.09s0-2.89,0-4.39c0-.89,0-1.76,0-2.63s0-1.73,0-2.59v-4.06c0-1.18,0-2.11,0-2.81s0-1.14-.07-1.34a1.75,1.75,0,0,1,1.28-1.06,12.18,12.18,0,0,1,2.7-.23c.38,0,.62.26.71.76a16,16,0,0,1,.13,2.34v5.48c0,1,0,2,0,3s0,2,0,3,0,2,0,2.94,0,1.89,0,2.8v4.33c0,.86,0,1.56,0,2.12s0,1,0,1.33v.62a1.79,1.79,0,0,1-1.28.61A19.87,19.87,0,0,1,127.89,490.61Z"/><path class="cls-7" d="M152.67,489.77l-.51-1.53c-.16-.51-.31-1-.46-1.52-.21-.65-.41-1.3-.6-1.94s-.42-1.4-.68-2.26H142c-.47,1.42-.92,2.76-1.36,4s-.83,2.4-1.15,3.34a1.06,1.06,0,0,1-.47.55,2.74,2.74,0,0,1-1.26.2,13.28,13.28,0,0,1-1.39-.11,14.61,14.61,0,0,1-1.66-.29l.18-.95a3.78,3.78,0,0,1,.22-.77q.8-2.38,1.86-5.46c.71-2,1.44-4.13,2.21-6.25q1.5-4.11,2.85-7.95c.89-2.56,1.62-4.73,2.18-6.49a4.76,4.76,0,0,1,.29-.8.57.57,0,0,1,.55-.31.68.68,0,0,0,.22-.09,1.31,1.31,0,0,1,.27-.06,1.62,1.62,0,0,1,.35,0c.24,0,.49,0,.75,0h.62a2.17,2.17,0,0,1,1.2.66q.75,2.22,1.54,4.69l1.64,5.08c.23.67.5,1.47.79,2.38s.6,1.83.91,2.74.61,1.79.9,2.63.53,1.52.71,2.06h0l1.21,3.4c.37,1,.69,2,1,2.87.12.38.23.76.33,1.13s.21.71.33,1l.05.09a.7.7,0,0,1-.27.44,6,6,0,0,1-1.32.29,12.14,12.14,0,0,1-1.46.11,2.83,2.83,0,0,1-.93-.15,4.29,4.29,0,0,1-1.06-.64ZM143.17,479h6.14c-.11-.33-.22-.67-.33-1s-.2-.71-.28-1c-.18-.59-.34-1.15-.49-1.7s-.29-1.08-.44-1.61l-.58-1.73c-.14-.44-.26-.82-.35-1.14s-.18-.63-.26-.91-.18-.61-.27-1c-.32,1-.68,2.17-1.06,3.42s-.8,2.58-1.24,4l.05-.05Z"/><path class="cls-7" d="M172,474.39a1.12,1.12,0,0,1,.27-.26,1.8,1.8,0,0,1,.24-.2.57.57,0,0,1,.33-.11c.35,0,.8-.05,1.35-.07l1.72,0c.6,0,1.17,0,1.7,0h1.24a11.08,11.08,0,0,1,.31,2.21c.06.94.09,1.76.09,2.47v10.38c-.33.24-.72.5-1.17.8a8.93,8.93,0,0,1-1.31.7,14.5,14.5,0,0,1-2.32.62,15.72,15.72,0,0,1-3.07.27h-.73a5.55,5.55,0,0,1-.72-.05,14.22,14.22,0,0,1-4.29-1.06,9.14,9.14,0,0,1-3.45-2.56,12.24,12.24,0,0,1-2.27-4.46,23.64,23.64,0,0,1-.82-6.72,20.8,20.8,0,0,1,1.24-7.75,15.42,15.42,0,0,1,2.83-4.79,9.11,9.11,0,0,1,3.73-2.39,15.43,15.43,0,0,1,5-.75,12.48,12.48,0,0,1,2.59.24,8.84,8.84,0,0,1,1.92.62,5.17,5.17,0,0,1,1.26.8,3.43,3.43,0,0,1,.64.72,2.6,2.6,0,0,1-.24,1.13,7,7,0,0,1-.64,1l-.27,0a1.41,1.41,0,0,1-1-.17h0l-.26-.14-.31-.13a10.51,10.51,0,0,0-3.49-.57,7,7,0,0,0-5.92,2.82c-1.42,1.89-2.12,4.89-2.12,9a21.33,21.33,0,0,0,.62,5.67,9.89,9.89,0,0,0,1.65,3.54,5.55,5.55,0,0,0,2.39,1.81,8,8,0,0,0,2.85.51,7.36,7.36,0,0,0,1.79-.2,3.2,3.2,0,0,0,1.17-.51v-9.5a3.27,3.27,0,0,1-.88-.11,1.82,1.82,0,0,1-.8-.42,2.54,2.54,0,0,1-.62-.88A4.15,4.15,0,0,1,172,474.39Z"/><path class="cls-7" d="M196.23,475.54c.53,1,1.05,2.06,1.55,3.09s1,2,1.41,3c-.06-1-.09-2.12-.11-3.35s0-2.37,0-3.41V464.19a5.77,5.77,0,0,1,.44-2.43,4.92,4.92,0,0,1,.69-.4,2.79,2.79,0,0,1,.7-.2,7.59,7.59,0,0,1,1.06-.07h1.71c0,1.33-.06,2.77-.07,4.33s0,3.21,0,4.95v19.49l-.86.48a3.06,3.06,0,0,1-1.49.4l-1,0a3.29,3.29,0,0,1-1.15-.27c-.59-1.09-1.21-2.21-1.87-3.36s-1.35-2.34-2.06-3.58v.05L194,481.48c-.38-.69-.78-1.37-1.19-2.05l-1.77-3.27c-.32-.68-.65-1.36-1-2.05s-.67-1.41-1-2.15a9.34,9.34,0,0,1-.42-.95,9.7,9.7,0,0,0-.42-.9.28.28,0,0,1-.07-.09l-.07-.09c.06,1.33.11,2.63.14,3.91s0,2.39.08,3.34v10.29a9.37,9.37,0,0,1-.08,1.37,4.55,4.55,0,0,1-.31,1,2.4,2.4,0,0,1-.58.44,2.18,2.18,0,0,1-.77.25,10.89,10.89,0,0,1-1.15.08q-.69,0-1.74,0c0-1.27.05-2.68.06-4.22s0-3.21,0-5V462.86l-.35-.46a.76.76,0,0,1-.18-.33v-.14a2.25,2.25,0,0,1,.09-.31,4.82,4.82,0,0,1,.71-.24,8.12,8.12,0,0,1,.93-.17,7.77,7.77,0,0,1,1-.09l.75,0a3.54,3.54,0,0,1,1.72.58c.47.94,1.06,2,1.75,3.18l2.23,3.84c.23.39.45.76.64,1.13s.39.73.6,1.08.36.65.55,1,.39.65.59,1Z"/><path class="cls-7" d="M219.25,460.56a11.19,11.19,0,0,1,4.93,1,9.09,9.09,0,0,1,3.46,2.94,13.39,13.39,0,0,1,2,4.73,27.75,27.75,0,0,1,.66,6.34q0,7.38-2.81,11.46T219,491.14a11.32,11.32,0,0,1-5.11-1.06,8.91,8.91,0,0,1-3.42-3,13.77,13.77,0,0,1-2-4.77,29.72,29.72,0,0,1-.61-6.34q0-7.65,2.91-11.51A9.93,9.93,0,0,1,219.25,460.56Zm-7.07,15.6q0,5.93,2,8.81a5.9,5.9,0,0,0,5.06,2.9,5.74,5.74,0,0,0,5.08-2.94q1.85-2.94,1.85-9.21a23.45,23.45,0,0,0-.53-5.39,11.46,11.46,0,0,0-1.48-3.69,6.15,6.15,0,0,0-2.23-2.12,5.76,5.76,0,0,0-2.78-.69h-.05a5.73,5.73,0,0,0-5,3Q212.18,469.76,212.18,476.16Zm5.26-17.45a.7.7,0,0,1-.42-.31,6.49,6.49,0,0,1-.36-.55,4.19,4.19,0,0,1-.24-.55,1.47,1.47,0,0,1-.09-.36l.36-.44a3,3,0,0,1,.44-.44c.47-.41,1-.85,1.61-1.3s1.2-.87,1.77-1.24,1.1-.68,1.57-.93a2.68,2.68,0,0,1,1-.38,1.2,1.2,0,0,1,.6.31,2.68,2.68,0,0,1,.5.64,4.87,4.87,0,0,1,.38.8c.1.28.18.52.24.73s-.2.5-.62.71-1.1.51-1.72.83-1.24.65-1.85.95l-1.75.87Z"/><path class="cls-7" d="M241.21,460.56a10.35,10.35,0,0,1,4.28.71,5,5,0,0,1,1.86,1.24,4,4,0,0,1-.75,2.16,1.49,1.49,0,0,1-.84.27,2,2,0,0,1-.93-.22,6.39,6.39,0,0,0-1.48-.51,8,8,0,0,0-1.75-.2,4.12,4.12,0,0,0-2.71.82,3,3,0,0,0-1,2.45v.57a4.76,4.76,0,0,0,.51,1.53,6.62,6.62,0,0,0,1,1.35c.44.5,1,1,1.59,1.63l1.72,1.64.11.08s.07.06.07.09l1.3,1.24c.43.41.82.81,1.17,1.19a10.42,10.42,0,0,1,2.08,3,8.46,8.46,0,0,1,.66,3.38,8,8,0,0,1-2.25,6c-1.51,1.48-3.7,2.23-6.59,2.23a12.9,12.9,0,0,1-3.82-.49,5.32,5.32,0,0,1-2.14-1.1,1.69,1.69,0,0,1-.66-1.11A4,4,0,0,1,233,487a9,9,0,0,1,.84-1.64,10.25,10.25,0,0,0,2.49,1.46,7.4,7.4,0,0,0,2.81.58,3.87,3.87,0,0,0,2.89-1.09,4.11,4.11,0,0,0,1.09-3.07,5.1,5.1,0,0,0-.6-2.47,10.68,10.68,0,0,0-2.1-2.52,9.8,9.8,0,0,0-.75-.84l-.84-.84-.24-.22a3.13,3.13,0,0,1-.33-.31l-.53-.53c-.53-.53-1-1-1.51-1.48a12.54,12.54,0,0,1-1.23-1.35,8.92,8.92,0,0,1-1.59-2.67,7.38,7.38,0,0,1-.45-2.5,7.25,7.25,0,0,1,.47-2.56,6.16,6.16,0,0,1,1.46-2.23,7.16,7.16,0,0,1,2.56-1.59A10.55,10.55,0,0,1,241.21,460.56Z"/><path class="cls-7" d="M261.84,464.76v19.53c0,1.24,0,2.31,0,3.22s0,1.71.07,2.39a3.22,3.22,0,0,1-.58.38,2.72,2.72,0,0,1-.77.22,10.89,10.89,0,0,1-1.15.08q-.69,0-1.74,0a4.06,4.06,0,0,1-.54-2.08V464.76H252c-.33,0-.67,0-1,0s-.76-.08-1.17-.13a1.46,1.46,0,0,1-.09-.38V464a5.74,5.74,0,0,1,.11-1,4.15,4.15,0,0,1,.29-1,1.27,1.27,0,0,1,.28-.49l.38-.4h.62l.31,0,.35,0c.5,0,1.05,0,1.66,0h16a9.94,9.94,0,0,1-.09,1.39,11.34,11.34,0,0,1-.22,1.18,1.05,1.05,0,0,1-.6.7l-.68.31Z"/><path class="cls-7" d="M273.1,490.61a.78.78,0,0,1-.59-.22,1.26,1.26,0,0,1-.2-.84v-5.26c0-1.3,0-2.66,0-4.09s0-2.89,0-4.39c0-.89,0-1.76,0-2.63s0-1.73,0-2.59v-4.06c0-1.18,0-2.11,0-2.81s0-1.14-.07-1.34a1.73,1.73,0,0,1,1.28-1.06,12.18,12.18,0,0,1,2.7-.23c.38,0,.61.26.7.76a14.42,14.42,0,0,1,.14,2.34v5.48c0,1,0,2,0,3s0,2,0,3,0,2,0,2.94,0,1.89,0,2.8v4.33c0,.86,0,1.56,0,2.12s0,1,0,1.33v.62a1.81,1.81,0,0,1-1.28.61A20,20,0,0,1,273.1,490.61Z"/><path class="cls-7" d="M293.25,460.56a12.4,12.4,0,0,1,2.58.25,8.76,8.76,0,0,1,1.93.62,5.17,5.17,0,0,1,1.26.79,3.48,3.48,0,0,1,.64.73,4.35,4.35,0,0,1-.2,1.35,3.46,3.46,0,0,1-.56,1h-.48a.91.91,0,0,1-.51,0l-.55-.26-.16-.07-.15-.07v.05c-.32-.15-.64-.27-.95-.38a7,7,0,0,0-1-.24c-.17,0-.38-.05-.61-.07l-.71,0h-.44a2.12,2.12,0,0,0-.44,0,6.48,6.48,0,0,0-2.7.86,6.74,6.74,0,0,0-2.25,2.18A12.09,12.09,0,0,0,286.4,471a21.81,21.81,0,0,0-.57,5.33q0,5.66,2,8.26a6.63,6.63,0,0,0,5.61,2.61,8.86,8.86,0,0,0,1.52-.14,11.72,11.72,0,0,0,1.5-.35c.49-.15.94-.3,1.35-.46a6.89,6.89,0,0,0,1-.51,4.19,4.19,0,0,1,.61,1.81,3.06,3.06,0,0,1-1.14,2.12,5.67,5.67,0,0,1-2.1,1,12,12,0,0,1-3.38.44,15.89,15.89,0,0,1-4.95-.73A8.86,8.86,0,0,1,284.1,488a11.28,11.28,0,0,1-2.38-4.48,24.61,24.61,0,0,1-.84-7q0-8.31,3.89-12.59a9.55,9.55,0,0,1,4-2.7A14.2,14.2,0,0,1,293.25,460.56Z"/><path class="cls-7" d="M313.48,460.56a11.65,11.65,0,0,1,5.06,1,9.18,9.18,0,0,1,3.54,2.94,13.41,13.41,0,0,1,2.07,4.73,26.59,26.59,0,0,1,.69,6.34q0,7.38-2.87,11.46t-8.75,4.09a11.83,11.83,0,0,1-5.21-1.06,9,9,0,0,1-3.52-3,13.6,13.6,0,0,1-2-4.77,28.35,28.35,0,0,1-.65-6.34q0-7.65,3-11.51T313.48,460.56ZM307,476.16q0,5.74,1.81,8.53a5.4,5.4,0,0,0,4.68,2.78,5.24,5.24,0,0,0,4.73-2.83c1.12-1.88,1.68-4.86,1.68-8.92a23,23,0,0,0-.51-5.21,12.34,12.34,0,0,0-1.37-3.58,5.6,5.6,0,0,0-2.08-2.08,5.33,5.33,0,0,0-2.58-.66,5.22,5.22,0,0,0-4.62,2.87C307.53,469,307,472,307,476.16Z"/></g></g></svg>